<mxfile host="65bd71144e" modified="2020-11-19T07:55:53.130Z" agent="5.0 (Macintosh; Intel Mac OS X 10_15_7) AppleWebKit/537.36 (KHTML, like Gecko) Code/1.51.1 Chrome/83.0.4103.122 Electron/9.3.3 Safari/537.36" etag="ToQ_d72xsPPDHvFiuarP" version="13.6.5">
    <diagram id="zu3WB9LmIrhxavgD_aBI" name="Page-1">
        <mxGraphModel dx="836" dy="716" grid="1" gridSize="10" guides="1" tooltips="1" connect="1" arrows="1" fold="1" page="1" pageScale="1" pageWidth="827" pageHeight="1169" background="#F7F7F7" math="0" shadow="0">
            <root>
                <mxCell id="0"/>
                <mxCell id="1" parent="0"/>
                <mxCell id="5" value="" style="shape=stencil(tVzZkhy3EfyafUU0buBZlv9DEaLMDdOkgqJt6e9diI2encnsyZoe0m8rCjmNo86sAl7yT398/OX3Dy9p++Pb1y///PDf11+/fXzJf3tJ6fXzxw9fX7/ZXy/555f8029fvn74x9cv//7869t///7LGrn++teX/6xf+PMNt4VtW6C0/fX2DzOkt3/4+9vwT6+f1fC4hVzOjE+hxDPja2in5tNDPDV+hjZOjE8ppH5mfAn9zHpTC+PU748wzsw/b6G0M+Nj6PXM+BT6qd/PoaUz40to+cz4Guap3+8hn5r/CPXM+WaTtzO/X2LIZ863pFBv9sf+eNf9N7Nx+X/3jILJeEOpn/P+LNJuMx4eH9Pt+BySOKUYZsPxU2hJDGOiFhYhNSbj43Z8DVFYtRhaRa2NQktiqOV2vEmZsFJx19ErLe9yPvl2vablWe4njrcd1vPJZ7TW1nt7vqaFykvEXaevtHCT59tv98fRQltdRC0cYr1p//pFqzZnfLo933LZgTvjYT9t/BTyk0KLOL6J/UkozzZ//fugX87+5BAz7r+ymqbdt/PJLTQhD3mPEa6sfhfrzSRv2gvZ+NvzNX1RXs7Ggz2ZIer53P6+6XsX9sfGUxRQhdWn/TF71YW80f479i3v1uzBKCaHLeL4LNabwsg4Xs2H5N8d7/mvG6/42+unTw96xkkna75GzOT8eLCE7niwbMu3KstpAUNBgApoDZAIoCJ4A4BxM0AVymgAXLNpr/JGG4lPkptkgAnyf7Fgx4CIDmCpnHJ4McSIgKEigogm1ES6qnNgQD0L0KnFwRpGKHoN27mwg7bV7LSyEwtwK3zmCGQgYQDwBC1kZw0U0MvQg2TJiegX4NYYOcHEASDp6PIIMNQ5MCBD1vxM1mCpNEqcNl4HALMFIm8wQL4VIPuXTThK+98QCUU7XnVaE7cmdh1qbehroqmZsI8GAJdggE0lSxtmM7HqaDRiOuZ9geJ7bw0RHbLt0hTbuiJ24l2q8uBxT3iuZKmqEJa+4FhgTjrMPia9SxBlmn2sGpBPhZkGiGQfVRyb2BhZoiv0wQCdInGlD0tawcb3kLR4Y644ZG5vgEwUidLppXEEkPqwoWMzC5y1TjNA5k80JYe2WYumDNAxMyB8Xsq47RnBlVNISuNsiRkBVQXxEbMEx+0w7UBuhzWOAOmUETBA1io6CKD44AXoJwEQoRPgKYaukWNzbHwjx1Z1jtb3SOsCKHrzO4blMYeupjQwWDNAU18Yeyx3BVC8gwEaAZwvwGnZohWzZAnYRs5Z6uVEG2+uU6oZA+Zunu4CTkVVaVLgr3PCA4Dja3lKVfvaSYxyC0VZr4lexMRROudJaarmWDmVN2++6YMDY5QtztLbCjFPzmHT24oAXR05mJLj/omPcOoja5duddqhBtc5EDcr4wU6aXPO0vKRAnlsLum0580nGjIDyPh5HKV4akoDcwDPmw80xgaQnnAgp/4AgEpPzpQaTclZNGicv60cJEkefmChxQBRLxqZe0eWjgDpuwt0ZhiQ99OM6DOAQbyfqukZgDM2lf2vGhJxo0mx9kzDW7KhyhR5T4auXKcDwABjSCUwALCjDl1ggEiZs1ICywAnBXryCwkjVAMo6/WeY14BlCIboBFd4AAqERLOlJDncReN59BkGGYAiEicMMwAQEWaaKhwOFPR2oTPA4CKbpLyyFzmjpI4PwA4Os2Fd8dqUOXUqzSl3dlfAWQpK1Htq+3Vpwel1f8ClhfqThLf02lw/75txUVfKnQP2iWnprIs36kiDJtKp0SyACQaqscic9FSh/Rr0SBLlzjrLgCC1YvS3j0HYMOqjJ/54PKUTBIDfkh/TqG6iFkvZYELkTtmHxVRuABggWsYQoDeA6erzHmqKUXytUUWUgqxQQZQRGEhrsYhJEqiVFvTBQbAACPrRSfiwTW/sCi1iucgdykdnLQKmgs1f5hjUxHJAkAIo7n8QhFJulRwH1y0U3M++IK2wLxox4uUjDnhO3t1DwARidN5WcjcOdl/IZNt1qso8c7YhmbJ/FTnwICpxZum5CRgvGg7GRXoFTaomuFdB1cQoAjbJUtEOssvUPz8Ll33AI2Ic+cL5xLhQgG3AaR/4I60TTY8MMDxhIeA7bt58NKodOl4wrbH1FcGVfU2GWDcSlzUNbbSd1rw2osoNetYSHFobQNgepS0Y+tUr03eF9DtOICBgb8BVIufARK5zqQkbpz1tUz+OxEJUWBOXluIZHOy/wWAKemccE0JwvJLyffuok/1RpWBRTmnEckASP7rOL5QXchcZ9TCh4X2Kan50snXRknNFyqGLT5AbWvDauoicpTGNaoWXBi4uwD4gmNmGlXmq+Ty1xroboSMFxp6QgN0bflANJzyAhsyp12rdOQMDSDX0OmkdevxsksEkIsmu+QDuAjTv9sT1oyK7FzNMkCpJwH9dvPnLiDH40vIEcarOqSNh3BzSg2w8RN/X91dqxUrR0OqpI0HYRuyG6c27CV0fr+h2XLm3/CEp+yKrxwbbVIyF4DChOrM6JSL5SU7yaYB0NtojtMODXt9dZ+sATDZnPLKYa0HvkB1Uiw5IrOobJABOO9SwbUBMO9KWpUZoLOiBwBPGa2JP+uowNyzkofHJzRZij2x8XCTIUZ9tlSYdQJlA4D0OCyWAUAYnOJJpYjOaRipFIo7/R8HgCq53zUl4Gd0a3mlSq5FdCpAq+Ogd0JdUVsnTdGQytIq9R04fr4e9U6o1kkDAHVnX1D8TONOSB1vGYAvVikXZQC0RFn65EbdzQ4Hv6YE4ZNukl2LBuHTYUjjKy9TCx81ja+eE31wnLA4X8ALSjrDWdJKbKK658N2yQDSq1Gm6eRQ/w/AMy6kNWrA18xD47BIBy0GQAs8ZLubATgJV26nNWqF0Em4AYCqcG4YGgCScOeujgEm3dSXpoJzap2aHQK+Pw9qg4o4ujP2AKA7Yw2QgYnSqXqjjM9hBA0wCKCiikbezGEE20Qe3dMa6peMSTunSZyjrr416ma0c5AHx5d7dJfIAUC39/CU3q/73F00ab6qXDUKgE3zk5KliUXupAuzjdofzVSoUlejbkan1NXI1ziPkjTiTZ2UqxFv6ri/Rg2WTvWtUYdy3nRUMTH1dSJU1genHbjR3d58uXZ1COh0Fc151qHz5R5NgxpgUHSn1tCpK8C50WQADAd1FbTTWxyUjT/jRfrAem/TW0nju1RjHq8T006su2OvF4CoGZVnGoBvDarabSem1ClmGABNl84zO9cmdCdWp35e56GVTsm187KDAViLk3CDnapQnkAzPfwjBHrQ5asYZXhmAIwQXMA2EKAa7cZGldUsT2vQnbZ1JUl/ARIz53aOAZDQ1BdbB6XgToRgAOyQ1AW6wU9+aULzAKD999hO3uPnRTtugLc1F6kE6+CInVFE3xINAih2ZrAr0y+FDX5aQBNGg+5HOgW6EamMWfSiI/Uv6qrkwRe0wx98Izlq0eAXGzSdY+eAUY4rfJ34ehWpDWKYfAB22yLgKQtMeebQOnAwXjX92HisrTj2dyA5btZRVfINkClEkOaUL2zqVsHBHj/JNuRB92tSlbn4oHLtureqbBdR0XRR8BlpmBSs60rGvGjFY9IwyYIOGZDaeGCUuhSeSfazy+Rk0tsvXbqMSbbN/X041yFJnEl5w5QVs0lvBL6/W3QPgN3HSb4sM+l2hkOYLAC1sqmIfdKjGhbdKP5jcsu1LiWtUzh1h2WSR3LquyxHTvw06fkU57Iya0IqkmGZFHs4N0wOAPrpkYMpNe8LeJdIkz6TH3/SmdOk9v2l0FqBkBrTlLUBJgGUpZ58l0gHvgaoAwGqM21yn7muY07qPv4xzoNYw03mxXNSBUO+KGXj2+1OFtmwPy+PKL8bX+XmbTwmcrr1aDJzm+W9CQOgbdShypxkfad8Y3ZeWuGv7IqKpeN2lMkpw3KEwFcNnhGffNAqpgXoEcSL86Si/YGPkts/vT1onn/+Hw==);fillColor=none;align=left;" parent="1" vertex="1">
                    <mxGeometry x="48.230000000000004" y="409.99529411764706" width="676.4705882352941" height="102.3529411764706" as="geometry"/>
                </mxCell>
                <mxCell id="9" value="Tim Sort&lt;br&gt;" style="text;html=1;strokeColor=none;fillColor=none;align=center;verticalAlign=middle;whiteSpace=wrap;rounded=0;fontStyle=1" parent="1" vertex="1">
                    <mxGeometry x="10" y="10" width="100" height="20" as="geometry"/>
                </mxCell>
                <mxCell id="12" value="Hybrid Algorithm: Mergesort + Insertion Sort&lt;br&gt;When list length is small use Insertion Sort&lt;br&gt;Inserttion Sort will move smaller items from RtoL and swap the items that are greater than it&lt;br&gt;&lt;br&gt;" style="text;html=1;strokeColor=none;fillColor=none;align=left;verticalAlign=middle;whiteSpace=wrap;rounded=0;" vertex="1" parent="1">
                    <mxGeometry x="40" y="40" width="600" height="170" as="geometry"/>
                </mxCell>
            </root>
        </mxGraphModel>
    </diagram>
</mxfile>